<?xml version="1.0" encoding="UTF-8" standalone="no"?>
<!-- Created with Inkscape (http://www.inkscape.org/) -->

<svg
   xmlns:dc="http://purl.org/dc/elements/1.1/"
   xmlns:cc="http://creativecommons.org/ns#"
   xmlns:rdf="http://www.w3.org/1999/02/22-rdf-syntax-ns#"
   xmlns:svg="http://www.w3.org/2000/svg"
   xmlns="http://www.w3.org/2000/svg"
   version="1.1"
   width="800"
   height="800"
   id="svg2">
  <defs
     id="defs4" />
  <metadata
     id="metadata7">
    <rdf:RDF>
      <cc:Work
         rdf:about="">
        <dc:format>image/svg+xml</dc:format>
        <dc:type
           rdf:resource="http://purl.org/dc/dcmitype/StillImage" />
        <dc:title></dc:title>
      </cc:Work>
    </rdf:RDF>
  </metadata>
  <g
     transform="translate(6.0379429,148.12587)"
     id="layer1">
    <g
       transform="translate(46.484375,-101.50746)"
       id="g3062"
       style="fill:#000000">
      <path
         d="m 346.13079,651.74822 c -0.82288,-0.15674 -2.48084,-1.88036 -2.66288,-2.76827 -0.083,-0.40461 -0.0805,-101.13339 0.005,-223.84166 l 0.15644,-223.10595 -1.12263,-0.56611 c -2.00331,-1.01019 -4.1619,-2.70434 -6.2315,-4.89073 -6.83196,-7.21752 -11.68666,-19.57877 -13.75196,-35.01597 -0.65345,-4.88433 -0.6503,-19.7619 0.005,-24.40414 1.95284,-13.83027 6.07985,-24.26399 12.08392,-30.55028 0.97785,-1.02381 2.46767,-2.31905 3.31068,-2.8783 1.6755,-1.11152 1.98924,-1.63583 3.20647,-5.358571 2.67383,-8.1775 4.57822,-20.50893 5.5897,-36.19501 0.21152,-3.28032 0.38459,-6.30605 0.38459,-6.72386 0,-0.44057 0.0916,-0.6582 0.21798,-0.51814 0.11991,0.13282 0.35549,3.15856 0.52349,6.72385 0.54974,11.66501 1.47008,21.58069 2.72507,29.35969 0.65826,4.08041 2.10505,10.439741 2.63653,11.588891 0.15636,0.3381 0.87021,1.0151 1.58632,1.50445 6.4171,4.38512 12.16888,14.62969 15.30636,27.26241 2.11407,8.51193 2.78686,15.03826 2.60112,25.23192 -0.18538,10.17655 -1.21194,16.92774 -3.74028,24.59815 -2.38129,7.22431 -5.54938,12.87398 -9.29816,16.58152 -2.23247,2.2079 -4.09129,3.4479 -6.44748,4.30106 -0.82905,0.30019 -1.58,0.61844 -1.66876,0.70719 -0.0888,0.0888 -0.23802,100.5238 -0.33167,223.18895 l -0.17027,223.02754 -0.51424,0.88975 c -0.30455,0.5269 -0.97439,1.12298 -1.64267,1.46169 -1.10114,0.55817 -1.54461,0.62089 -2.75696,0.38993 z m -23.43052,-97.30758 c -20.30494,-4.5308 -44.3197,-31.60928 -50.85635,-57.34444 -1.90638,-7.50549 -2.05007,-14.79699 -0.39733,-20.16028 0.37968,-1.23223 0.37541,-1.26027 -0.54419,-3.55896 -1.25097,-3.1271 -4.32152,-9.122 -7.03561,-13.73619 -3.80768,-6.47346 -7.28732,-11.77241 -15.52722,-23.64561 -0.96416,-1.38931 -1.61216,-2.43894 -1.44001,-2.33256 0.17215,0.10645 1.98418,2.10105 4.02672,4.43259 12.13008,13.84617 22.46539,23.54729 29.60643,27.7897 l 1.85034,1.09928 2.30037,-0.0711 c 21.18086,-0.65472 51.0707,31.34128 57.10483,61.12859 0.77996,3.85026 0.96945,10.87879 0.3727,13.82391 -1.27703,6.30243 -4.45885,10.42411 -9.43991,12.22831 -1.96885,0.71316 -7.51821,0.9052 -10.02077,0.34677 z m 40.44705,-0.0206 c -4.52478,-1.21682 -7.84424,-4.29236 -9.56394,-8.86112 -1.53912,-4.08909 -1.87648,-10.01485 -0.90766,-15.94322 3.26771,-19.99585 18.86571,-43.39405 37.00159,-55.50538 7.29535,-4.87188 14.39385,-7.38163 20.35652,-7.19734 2.29399,0.0709 2.30528,0.0682 4.06736,-0.98076 6.56613,-3.90883 16.83341,-13.34431 26.84188,-24.66726 2.56722,-2.90438 5.22403,-5.85384 5.90405,-6.55437 l 1.2364,-1.27372 -1.72944,2.5421 c -0.95117,1.39815 -3.14533,4.59837 -4.87592,7.11161 -8.3165,12.07768 -14.94502,23.43987 -17.66852,30.28634 -0.91384,2.29716 -0.91841,2.32752 -0.53899,3.55891 1.16459,3.77919 1.46914,9.79426 0.74057,14.62747 -1.94005,12.87018 -9.19926,27.62159 -19.93353,40.50695 -2.75677,3.30921 -8.88379,9.35536 -11.97813,11.81999 -6.9802,5.55971 -14.10982,9.28249 -20.17755,10.53579 -2.38916,0.49349 -6.92887,0.49043 -8.77469,-0.006 z m -40.70127,-74.07298 c -21.68679,-4.65925 -47.74248,-36.23612 -51.72991,-62.6914 -0.73299,-4.86317 -0.39789,-11.56678 0.73932,-14.79001 0.41005,-1.16214 0.24948,-1.74371 -1.66625,-6.03492 -3.18662,-7.138 -9.80998,-18.06808 -18.6394,-30.75941 -3.90317,-5.61036 -4.31196,-6.22814 -4.12117,-6.22814 0.0778,0 2.18923,2.31649 4.69217,5.14775 10.73928,12.148 19.34936,20.40301 26.49274,25.40013 3.56888,2.49662 3.89833,2.62329 6.60284,2.5389 11.58925,-0.36161 27.4113,9.86474 39.71276,25.66779 8.89696,11.42947 14.89307,23.77871 17.29092,35.61144 0.49388,2.43713 0.58131,3.65413 0.58041,8.08058 0,4.6501 -0.0627,5.42457 -0.57408,7.19196 -1.70519,5.89375 -5.42232,9.77541 -10.50921,10.97453 -2.18683,0.51548 -6.19311,0.46616 -8.87114,-0.1092 z m 40.54648,0.0253 c -2.55397,-0.73463 -3.97757,-1.58887 -5.98084,-3.58874 -1.34384,-1.34152 -2.15696,-2.41857 -2.7312,-3.61757 -4.2836,-8.94426 -2.20485,-23.05748 5.68319,-38.58495 9.32129,-18.34881 25.36807,-34.38495 39.76216,-39.73586 3.80106,-1.413 5.60996,-1.7705 9.33893,-1.84567 3.2677,-0.0658 3.40644,-0.0915 4.79644,-0.88678 6.53742,-3.74034 17.626,-14.04886 28.88536,-26.85333 6.24361,-7.10041 6.32445,-7.09743 1.34006,0.0495 -10.44777,14.98061 -17.23194,26.43371 -20.43696,34.50183 l -0.762,1.91822 0.48108,1.58895 c 0.88138,2.91098 1.09271,5.09464 0.94048,9.71795 -0.15606,4.74013 -0.53908,7.01992 -2.07724,12.36395 -2.89581,10.06081 -8.88431,21.11155 -16.8227,31.04335 -3.29143,4.11796 -9.63061,10.53239 -13.30973,13.46775 -6.96553,5.55739 -14.41441,9.41649 -20.34867,10.54218 -2.74955,0.52162 -6.7939,0.48431 -8.75836,-0.0807 z m -40.16516,-73.91911 c -9.54428,-2.02373 -20.91277,-9.6106 -30.30405,-20.2236 -11.0872,-12.5296 -18.55985,-26.61213 -21.44912,-40.42186 -1.11136,-5.31189 -0.92454,-13.21616 0.40116,-16.97364 0.35917,-1.018 0.34242,-1.11964 -0.55848,-3.38688 -2.97531,-7.4881 -10.07333,-19.43203 -20.27301,-34.11374 -1.84552,-2.65649 -3.45026,-4.99065 -3.56608,-5.18702 -0.56408,-0.9563 0.74212,0.41813 4.88587,5.14114 5.42248,6.18047 14.0149,14.97413 18.36939,18.7996 3.46269,3.04203 7.86176,6.41115 10.35033,7.92705 1.55116,0.94487 1.62358,0.96176 3.9578,0.92229 4.69553,-0.0794 9.36391,1.1483 14.7273,3.87287 19.96186,10.1405 38.96352,36.35859 42.68491,58.89568 0.70279,4.25617 0.57321,11.05602 -0.26558,13.93604 -1.68065,5.77069 -5.42931,9.65156 -10.47062,10.83992 -2.04707,0.48254 -6.14598,0.46903 -8.48982,-0.0279 z m 40.45621,0.016 c -6.29408,-1.52363 -10.47658,-7.31386 -11.06516,-15.31857 -0.65428,-8.89831 1.95112,-19.18133 7.73897,-30.54423 9.74656,-19.13481 26.55023,-35.53924 41.2382,-40.25842 3.35099,-1.07666 5.78414,-1.46377 8.87245,-1.41155 2.25518,0.0381 2.43521,0 3.72535,-0.78157 2.13711,-1.29522 5.47951,-3.74499 8.47284,-6.21002 3.89085,-3.20415 14.9156,-14.31079 20.38556,-20.53692 4.27075,-4.86114 5.54346,-6.20372 4.98768,-5.26145 -0.11585,0.19638 -1.72057,2.53052 -3.56608,5.18703 -10.19969,14.6817 -17.29771,26.62562 -20.27304,34.11363 -0.90088,2.26724 -0.91764,2.36887 -0.55847,3.38689 1.32571,3.75747 1.51252,11.66174 0.40117,16.97363 -1.33793,6.39486 -3.37131,12.11499 -6.61583,18.61116 -10.66505,21.35354 -29.49559,38.82791 -45.31728,42.0536 -2.38594,0.48644 -6.41002,0.48491 -8.42636,-0.003 z m -40.81289,-74.11023 c -11.63213,-2.44141 -26.01294,-13.61004 -36.63176,-28.44954 -8.0308,-11.22277 -13.24128,-22.91608 -15.00557,-33.67537 -0.87085,-5.31077 -0.59621,-11.86561 0.64449,-15.38213 0.34921,-0.98979 0.33038,-1.12744 -0.40985,-2.99605 -3.33054,-8.40738 -10.3884,-20.17891 -22.39597,-37.35334 -1.00044,-1.43092 -1.76952,-2.64798 -1.70908,-2.70458 0.0604,-0.0566 2.1118,2.19029 4.55857,4.99309 2.44677,2.80279 6.90815,7.61065 9.91418,10.68413 7.67197,7.8441 12.628,12.17214 18.0096,15.72754 l 2.62991,1.73747 2.74396,0 c 7.33672,0 14.96152,3.09002 23.51367,9.52911 14.35645,10.80929 27.26111,29.30275 32.04495,45.92317 1.78237,6.19243 2.00119,7.68087 2.01301,13.69279 0.01,4.93881 -0.0446,5.65637 -0.56335,7.44618 -1.70392,5.87876 -5.43938,9.77919 -10.51026,10.97452 -2.22004,0.52329 -5.94805,0.46137 -8.8465,-0.14699 z m 40.81289,0.13514 c -6.28048,-1.52035 -10.39864,-7.20128 -11.0455,-15.23716 -1.85221,-23.00886 20.24291,-57.56701 44.05594,-68.9063 5.11668,-2.43646 8.99452,-3.41046 13.57815,-3.41046 l 2.71807,0 2.65581,-1.73502 c 5.30375,-3.46493 10.31044,-7.8316 18.0355,-15.72999 3.00603,-3.07348 7.46741,-7.88134 9.91418,-10.68413 2.44676,-2.8028 4.49878,-5.04902 4.56004,-4.99163 0.0613,0.0574 -0.5915,1.10287 -1.45053,2.32327 -11.65513,16.55801 -19.33365,29.34646 -22.65599,37.73319 -0.74023,1.86861 -0.75906,2.00626 -0.40986,2.99605 1.2407,3.51652 1.51535,10.07136 0.6445,15.38213 -3.99303,24.35081 -25.82154,52.5763 -46.97996,60.7477 -4.53866,1.75283 -10.08358,2.36853 -13.62035,1.51235 z m -39.38121,-72.05663 c -7.43786,-1.25105 -16.51466,-7.78608 -24.17556,-17.40572 -14.60361,-18.33748 -22.86644,-44.88764 -19.32937,-62.10911 0.52942,-2.57756 1.21221,-4.59791 2.31387,-6.84672 1.03948,-2.12185 1.04167,-2.04522 -0.20433,-7.17806 -1.80825,-7.44896 -6.20633,-19.23675 -12.19129,-32.6752 -1.80808,-4.05973 -3.28602,-7.49156 -3.28437,-7.6263 0.004,-0.33157 0.86973,1.05413 4.80889,7.69743 7.72085,13.02106 15.56043,23.67421 21.60882,29.36409 1.60219,1.50723 2.28685,1.98215 3.01513,2.09144 2.6851,0.40296 4.84994,0.95771 6.73262,1.72527 8.8647,3.6141 18.48993,13.06099 25.99301,25.51145 14.53256,24.115 17.86916,52.89205 7.3686,63.55141 -3.36139,3.41223 -7.66733,4.73911 -12.65602,3.90002 z m 40.84698,-0.0958 c -6.33227,-1.44956 -10.64382,-7.22349 -12.2303,-16.37853 -0.63928,-3.68918 -0.56859,-11.28001 0.14957,-16.05487 3.57809,-23.79013 18.60647,-48.97851 34.90015,-58.49454 3.36892,-1.96753 6.45484,-3.02384 10.73073,-3.67306 0.8453,-0.12834 1.43736,-0.59908 4.08254,-3.24602 6.42798,-6.43226 13.67277,-16.52761 21.74177,-30.29637 3.14798,-5.37158 4.24897,-7.01595 3.48926,-5.2113 -0.20601,0.48935 -1.80034,4.09278 -3.54295,8.0076 -5.78907,13.00534 -10.04901,24.46376 -11.86854,31.92401 -1.22793,5.0347 -1.23104,5.15435 -0.1871,7.22431 4.43797,8.79966 4.11311,23.06442 -0.87553,38.44631 -8.4027,25.90881 -27.31647,47.3084 -42.4211,47.99653 -1.5471,0.0705 -2.97916,-0.0175 -3.9685,-0.24407 z"
         id="path3052"
         style="fill:#000000" />
      <text
         x="-31.428568"
         y="495.56909"
         id="text3058"
         xml:space="preserve"
         style="font-size:40px;font-style:normal;font-variant:normal;font-weight:normal;font-stretch:normal;line-height:100%;letter-spacing:0px;word-spacing:0px;fill:#000000;fill-opacity:1;stroke:none;font-family:Roboto;-inkscape-font-specification:Roboto"><tspan
           x="-31.428568"
           y="495.56909"
           id="tspan3060"
           style="font-size:400px;font-style:normal;font-weight:bold;line-height:100%;fill:#000000;-inkscape-font-specification:Roboto Bold">H  G</tspan></text>
    </g>
  </g>
</svg>
